# xmcd
#
# Track frame offsets: 
#        150
#        15220
#        29817
#        41545
#        60427
#        71632
#        90632
#        104422
#        118192
#        129615
#
# Disc length: 1928 seconds
#
# Revision: 3
# Processed by: cddbd v1.5.2PL0 Copyright (c) Steve Scherf et al.
# Submitted via: ExactAudioCopy v0.90b4
#
DISCID=8407860a
DTITLE=Patty Loveless - Honky Tonk Angel
DYEAR=1988
DGENRE=Country
TTITLE0=Blue Side Of Town
TTITLE1=I Won't Gamble With Your Love
TTITLE2=Go On
TTITLE3=If You Think
TTITLE4=Chains
TTITLE5=Don't Toss Us Away
TTITLE6=The Lonely Side Of Love
TTITLE7=I'll Never Grow Tired Of You
TTITLE8=Timber I'm Falling In Love
TTITLE9=I'm On Your Side
EXTD=
EXTT0=
EXTT1=
EXTT2=
EXTT3=
EXTT4=
EXTT5=
EXTT6=
EXTT7=
EXTT8=
EXTT9=
PLAYORDER=
